Coordinates
version=1
nRows=43
nColumns=12
inDegrees=yes

Units are S.I. units (second, meters, Newtons, ...)
Angles are in degrees

endheader
time	SC_y	SC_z	SC_x	AC_y	AC_z	AC_x	GH_y	GH_z	GH_yy	EL_x	PS_y
       0.0               -30.3          16.17          51.11          35.88         -8.473          6.581          36.68           51.5         -13.88          109.5          135.2
   0.04299               -30.3          16.17          51.11          35.88         -8.473          6.579          36.66          51.49         -13.87          109.5          135.2
   0.08598               -30.3          16.17           51.1          35.88         -8.473          6.575          36.64          51.48         -13.86          109.5          135.2
     0.129               -30.3          16.17           51.1          35.89         -8.472          6.572          36.62          51.47         -13.84          109.5          135.2
     0.172               -30.3          16.18          51.09          35.89         -8.472          6.568           36.6          51.46         -13.83          109.5          135.2
     0.215               -30.3          16.18          51.08          35.89         -8.471          6.565          36.58          51.45         -13.82          109.5          135.2
    0.2579              -30.29          16.18          51.08          35.89          -8.47          6.561          36.56          51.43          -13.8          109.5          135.1
    0.3009              -30.29          16.18          51.07          35.89          -8.47          6.556          36.53          51.42         -13.79          109.5          135.1
    0.3439              -30.29          16.18          51.06          35.89         -8.469          6.552           36.5           51.4         -13.77          109.5          135.1
    0.3869              -30.29          16.18          51.05           35.9         -8.469          6.547          36.47          51.38         -13.75          109.5          135.1
    0.4299              -30.29          16.18          51.04           35.9         -8.468          6.541          36.44          51.37         -13.73          109.5          135.1
    0.4729              -30.29          16.19          51.03           35.9         -8.467          6.536          36.41          51.35         -13.71          109.5          135.0
    0.5159              -30.29          16.19          51.02           35.9         -8.466          6.529          36.37          51.32         -13.69          109.5          135.0
    0.5589              -30.29          16.19          51.01          35.91         -8.465          6.523          36.33           51.3         -13.67          109.5          135.0
    0.6019              -30.29          16.19          50.99          35.91         -8.464          6.515          36.29          51.28         -13.64          109.5          135.0
    0.6449              -30.29          16.19          50.98          35.91         -8.463          6.508          36.25          51.25         -13.62          109.5          134.9
    0.6879              -30.29           16.2          50.96          35.92         -8.462          6.499           36.2          51.22         -13.58          109.5          134.9
    0.7308              -30.29           16.2          50.95          35.92         -8.461           6.49          36.14          51.19         -13.55          109.5          134.9
    0.7738              -30.29           16.2          50.93          35.92         -8.459           6.48          36.08          51.15         -13.52          109.5          134.8
    0.8168              -30.29          16.21          50.91          35.93         -8.458          6.468          36.02          51.12         -13.48          109.5          134.8
    0.8598              -30.29          16.21          50.89          35.93         -8.456          6.456          35.95          51.07         -13.43          109.5          134.7
    0.9028              -30.29          16.21          50.86          35.94         -8.454          6.443          35.87          51.03         -13.39          109.5          134.7
    0.9458              -30.29          16.22          50.84          35.95         -8.452          6.428          35.78          50.98         -13.33          109.5          134.6
    0.9888              -30.29          16.22          50.81          35.95          -8.45          6.412          35.69          50.92         -13.27          109.5          134.5
     1.032              -30.29          16.23          50.77          35.96         -8.447          6.393          35.58          50.86         -13.21          109.5          134.5
     1.075              -30.29          16.24          50.74          35.97         -8.445          6.373          35.46          50.79         -13.14          109.5          134.4
     1.118              -30.29          16.24          50.69          35.98         -8.441           6.35          35.33          50.71         -13.06          109.5          134.3
     1.161              -30.29          16.25          50.65          35.99         -8.438          6.324          35.18          50.62         -12.97          109.6          134.2
     1.204              -30.29          16.26           50.6           36.0         -8.434          6.295          35.01          50.52         -12.86          109.6          134.0
     1.247              -30.29          16.27          50.54          36.02         -8.429          6.262          34.81          50.41         -12.75          109.6          133.9
      1.29              -30.28          16.28          50.47          36.03         -8.424          6.225          34.59          50.28         -12.61          109.6          133.8
     1.333              -30.28           16.3          50.39          36.05         -8.418          6.181          34.34          50.13         -12.46          109.6          133.6
     1.376              -30.28          16.31           50.3          36.07         -8.411          6.131          34.05          49.96         -12.28          109.6          133.4
     1.419              -30.28          16.33          50.19           36.1         -8.403          6.074          33.71          49.77         -12.08          109.6          133.1
     1.462              -30.28          16.35          50.07          36.12         -8.394          6.006          33.32          49.53         -11.84          109.7          132.9
     1.505              -30.27          16.38          49.93          36.16         -8.383          5.926          32.85          49.26         -11.55          109.7          132.5
     1.548              -30.27          16.41          49.76           36.2          -8.37          5.831           32.3          48.94         -11.22          109.7          132.1
     1.591              -30.27          16.44          49.55          36.25         -8.354          5.717          31.63          48.55         -10.81          109.8          131.7
     1.634              -30.26          16.48           49.3           36.3         -8.335          5.579          30.83          48.08         -10.32          109.8          131.1
     1.677              -30.26          16.54           49.0          36.38         -8.312          5.411          29.85           47.5         -9.727          109.9          130.4
      1.72              -30.25           16.6          48.62          36.46         -8.283          5.203          28.63          46.79         -8.991          110.0          129.5
     1.763              -30.24          16.68          48.15          36.57         -8.248          4.944          27.12           45.9         -8.073          110.1          128.5
     1.806              -30.23          16.78          47.56          36.71         -8.203          4.618          25.22          44.79         -6.916          110.2          127.1
